<svg xmlns="http://www.w3.org/2000/svg" width="659.566" height="372.827" viewBox="0 0 659.566 372.827">
  <g id="Group_1" data-name="Group 1" transform="translate(-244 -247.001)">
    <g id="Artboard_1" data-name="Artboard 1" transform="translate(-235.459 -523.997)">
      <path id="Path_459" data-name="Path 459" d="M991.87,1039.7c-7.923-8.04-15.3-15.469-22.714-22.887-17.02-17.066-33.682-34.544-51.275-51.013-13.081-12.23-13.943-29.32,0-41.333a46.3,46.3,0,0,0,5.133-6.627c6.327,6.614,11.633,11.852,16.5,17.479a7.649,7.649,0,0,1,.345,5.627,28.49,28.49,0,0,0,51.826,21.82,27.188,27.188,0,0,0,0-30.365,26.435,26.435,0,0,0-27.388-12.77,10.57,10.57,0,0,1-10.5-3.593c-4.179-4.685-8.878-8.915-12.968-12.943l50.737-50.788c.759.689,2.161,1.861,3.444,3.147q35.531,35.5,71.05,71.05c12.632,12.632,12.505,26.412-.148,39.045Z" transform="translate(63.557 12.061)" fill="#1cab8b"/>
      <path id="Path_460" data-name="Path 460" d="M893.7,950.3c0,10.806.127,21.453-.173,32.075,0,1.3-2.194,2.8-3.674,3.744a28.8,28.8,0,0,0-12.53,33.3,29.136,29.136,0,0,0,28.814,20.107,29.717,29.717,0,0,0,25.816-19.672,28.3,28.3,0,0,0-10.22-32.148,9.232,9.232,0,0,1-4.422-9.026c.24-7.418.07-14.837.07-21.188l77.977,77.977,1.6-1.01c-1.251,1.367-2.469,2.78-3.782,4.087q-35.3,35.347-70.626,70.661c-10.174,10.163-25.54,10.83-35.428,1.046-25.84-25.575-51.472-51.367-77.172-77.091a21.069,21.069,0,0,1-1.389-1.71C819.62,1016.47,886.661,952.07,893.7,950.3Z" transform="translate(48.838 26.601)" fill="#f3a322"/>
      <path id="Path_461" data-name="Path 461" d="M990.457,853.436,938.78,905.113c-3.582-3.963-7.659-8.224-11.381-12.781a6.66,6.66,0,0,1-.6-4.709,28.339,28.339,0,0,0-33.545-33.5,6.917,6.917,0,0,1-5.065-.964C874.354,839.723,860.7,826.1,847.62,813.14c12.173-12.632,23.371-25.494,35.806-36.954,8.915-8.234,22.75-6.26,32.148,3.042q34.371,34.163,68.559,68.478C986.278,849.794,988.62,851.78,990.457,853.436Z" transform="translate(54.634)" fill="#ec4656"/>
      <path id="Path_462" data-name="Path 462" d="M484.675,878.38a61.317,61.317,0,0,0-.07-9.185c-1.3-8.52,3.193-13.483,10.117-16.709,12.427-5.741,25.265-9.636,39.286-8.51,17,1.367,23.473,13.424,14.55,28.055a91.528,91.528,0,0,1-9.669,13.494c-4.593,5.168-6.892,10.979-4.674,17.387a182.061,182.061,0,0,1,8.531,52.32c.47,13.208,7.2,22.963,17.225,31.006a81.988,81.988,0,0,1,9.6,9.015c3.353,3.709,2.642,8.374-1.367,12.194-3.444,3.32-6.465,3.985-10.771.27-15.688-13.551-27.642-28.906-29.066-50.667-.608-9.315-2.137-18.581-3.444-27.847-1.321-9.725-2.972-19.224-12.127-25.381-3.766-2.526-3.377-5.741.678-8.04s8.475-4.422,12.562-6.891a20.8,20.8,0,0,0,11.093-19.408c-.357-7.337-5.133-12.127-11.657-15.1-7.683-3.444-15.307-1.148-18.846,6.511a33.672,33.672,0,0,0-3.342,12.633c-.516,15.744.092,31.57-5.327,46.763-.746,2.091.148,4.914-.883,6.729a14.743,14.743,0,0,1-6.143,6.5,6,6,0,0,1-8.361-3.9c-3.193-10.693-5.327-21.464.811-32.018a10.65,10.65,0,0,0,1.229-4.812C484.767,887.957,484.675,883.167,484.675,878.38Z" transform="translate(0 10.794)" fill="#6a6af8"/>
      <path id="Path_463" data-name="Path 463" d="M891.822,929.46c-28.331-26.1-54.6-54.341-81.732-80.63l26.561-27.112c12.886,12.932,26.275,26.3,39.515,39.815a5.74,5.74,0,0,1,.964,4.514c-3.055,15.309.964,25.092,13.678,33.4a6.384,6.384,0,0,1,2.745,4.322c.27,8.177.127,16.352.127,24.53Z" transform="translate(49.064 7.515)" fill="#ec485a"/>
      <path id="Path_464" data-name="Path 464" d="M762.334,868.913a95,95,0,0,1-2.194-14.229,9.4,9.4,0,0,1,3.444-7.383c3.572-1.78,6.6,1.081,7.9,4.433a194.444,194.444,0,0,1,8.1,23.4c2.766,11.311,9.245,20.429,15.861,29.49A120.824,120.824,0,0,0,805.937,915.9c8.04-3.7,11.219-10.336,13.778-17.56a133.927,133.927,0,0,1,5.892-15.423,11.629,11.629,0,0,1,6.213-4.593c.81-.311,3.782,2.183,3.928,3.582a21.882,21.882,0,0,1-3.825,15.906c-3.445,4.755-5.525,10.474-8.658,15.469-4.479,7.118-1.286,12.781,3.755,17.133,17.1,14.723,19.913,36.233,27.091,55.63,1.891,5.133-.7,12-3.985,12.816-6.281,1.562-7.888-3.95-9.361-7.7-3.663-9.407-5.995-19.327-9.612-28.709a88.88,88.88,0,0,0-22.209-32.4c-4.271-4.076-7.178,1.148-8.348,3.123a122.648,122.648,0,0,0-7.2,17.168,95.154,95.154,0,0,1-6,14.08c-1.148,1.837-4.663,2.183-7.1,3.2-.759-2.388-2.734-5.225-2.067-7.108,3.688-10.336,7.718-20.6,12.254-30.6,2.056-4.593,2.113-8.04-1.24-11.714-4.158-4.593-9.185-8.842-11.841-14.218-5.373-10.806-9.4-22.269-14.021-33.453a9.564,9.564,0,0,0-1.148-1.7Z" transform="translate(41.653 11.235)" stroke="#000" stroke-width="1"/>
      <path id="Path_465" data-name="Path 465" d="M771.7,865.92c3.112,13.586-3.985,25.643-5.649,38.518-.989,7.6-1.148,15.331-2.4,22.887a46.341,46.341,0,0,1-4.765,15.688c-2.812,4.812-8.831,2.745-12.967,1.791-14.264-3.242-23.817-12.565-24.749-28.8a16.357,16.357,0,0,0-3.18-8.361c-1.975,7.913-3.812,15.861-5.959,23.725a14.383,14.383,0,0,1-10.026,10.9c-4.02,1.148-6.5.3-5.943-4.122a176.33,176.33,0,0,1,3.914-23.587c3.18-11.862,7.213-23.52,11.106-35.176,2.056-6.122,5.514-6.705,10.4-2.3,8.164,7.337,11,17.363,13.47,27.4,1.688,6.892,2.161,13.953,3.72,20.821.424,1.872,2.78,3.32,4.239,4.96,1.586-1.526,3.755-2.791,4.593-4.663a13.935,13.935,0,0,0,1.148-7.626c-3.134-18.03,7.521-33.061,10.622-49.708.173-.93,2.148-2.045,3.377-2.161a90.223,90.223,0,0,1,9.185,0Z" transform="translate(32.137 14.077)" stroke="#000" stroke-width="1"/>
      <path id="Path_466" data-name="Path 466" d="M625.556,913.177c-2.7-13.219,7.464-19.213,15.183-25.759a44.662,44.662,0,0,1,38.953-9.934c18.776,4.239,29.447,24.243,17.938,42.3-8.2,12.883-20.8,18.627-35.806,19.327a111.978,111.978,0,0,1-13.172-.184c-9.774-.678-15.79-7.564-21.2-14.388C625.351,921.871,626.132,917.038,625.556,913.177Zm19.005-5.97c.27,8.853,4.892,18.235,14.688,18.005a80.859,80.859,0,0,0,18.37-1.745A12.349,12.349,0,0,0,685.589,908c-3.342-8.888-8.485-16.32-18.938-18.281-15.576-2.941-21.814,6.774-22.09,17.488Z" transform="translate(21.615 15.639)" stroke="#000" stroke-width="1"/>
      <path id="Path_467" data-name="Path 467" d="M631.809,892.627h-9.531c-9.806,0-15.55,5.741-15.55,15.572,0,11.668-.081,23.347,0,35.014,0,3.652-.562,7.213-4.49,7.8-4.133.621-6.43-2.388-7.062-6.327-1.229-7.7-2.526-15.4-3.444-23.152-.7-6.178-.654-12.427-1.275-18.627a8.5,8.5,0,0,0-8.04-7.948,67.954,67.954,0,0,1-8.831-1.3c-1.435-.413-3.445-2.077-3.445-3.215a5.157,5.157,0,0,1,2.985-3.825,82.633,82.633,0,0,1,16.009-4.214c10.463-1.229,21.015-1.975,31.559-2.3C631.8,879.682,632.36,880.57,631.809,892.627Z" transform="translate(13.458 16.173)" stroke="#000" stroke-width="1"/>
      <path id="Path_468" data-name="Path 468" d="M568.528,909.123c0,6.484-.286,12.989.1,19.451.251,4.271-1.286,7.74-5.133,7.959-3.3.184-8.361-1.229-9.774-3.628a33.664,33.664,0,0,1-4.593-15.539,264.143,264.143,0,0,1,1.265-35.152c.3-2.95,4.4-6.8,7.5-7.74,2.067-.608,6.465,2.618,8.04,5.2a24.61,24.61,0,0,1,2.469,11.163C568.828,896.9,568.528,903.025,568.528,909.123Z" transform="translate(10.314 15.341)" stroke="#000" stroke-width="1"/>
      <path id="Path_469" data-name="Path 469" d="M903.45,892.73c4.122,4.179,7.534,7.648,10.922,11.106L903.45,915.377Z" transform="translate(62.919 18.057)" fill="#f16067"/>
    </g>
  </g>
</svg>
